<svg width="32" height="16" viewBox="0 0 32 16" fill="none" xmlns="http://www.w3.org/2000/svg">
<mask id="mask0_178_1764" style="mask-type:alpha" maskUnits="userSpaceOnUse" x="0" y="0" width="16" height="16">
<rect width="16" height="16" fill="#D9D9D9"/>
</mask>
<g mask="url(#mask0_178_1764)">
<path d="M15.0769 3.40845C15.0527 3.16774 14.9524 2.94105 14.7905 2.76123C14.6287 2.58141 14.4138 2.45782 14.177 2.40845C13.1939 2.25366 12.2228 2.0301 11.271 1.73944C10.3377 1.35742 9.46262 0.846444 8.67114 0.221436C8.46908 0.0761611 8.2264 -0.00195312 7.97754 -0.00195312C7.72868 -0.00195312 7.48599 0.0761611 7.28394 0.221436C6.53597 0.913801 5.64196 1.42917 4.66797 1.72943C3.76614 2.10237 2.81367 2.33832 1.84204 2.42944C1.60133 2.46817 1.38147 2.58884 1.21948 2.77106C1.05749 2.95327 0.963395 3.18585 0.953125 3.42944C0.953125 3.42944 0.923096 5.93646 0.923096 8.14246C0.923096 12.1365 5.63592 16.0015 7.99292 16.0015C10.3499 16.0015 14.3439 13.2745 14.9819 8.20148C15.0811 6.60941 15.0978 5.01323 15.032 3.41943L15.072 3.40845H15.0769ZM12.511 6.49347L7.58813 11.1365C7.47996 11.239 7.34047 11.3025 7.19214 11.317C7.04381 11.3315 6.89501 11.2961 6.76904 11.2164L6.64014 11.1064L3.92407 8.28046C3.80234 8.14785 3.73816 7.97233 3.74585 7.79248C3.75354 7.61263 3.83248 7.44321 3.96509 7.32147C4.0977 7.19974 4.27328 7.13562 4.45312 7.14331C4.63297 7.151 4.80234 7.22982 4.92407 7.36243V7.36243L7.16113 9.70844L11.594 5.51447C11.6597 5.45412 11.7366 5.40727 11.8203 5.37665C11.9041 5.34603 11.9932 5.33224 12.0823 5.336C12.1714 5.33976 12.2587 5.36099 12.3396 5.39856C12.4205 5.43613 12.4931 5.48927 12.5535 5.55493C12.6138 5.62059 12.6608 5.6975 12.6914 5.78125C12.722 5.865 12.7357 5.95399 12.7319 6.04309C12.7282 6.13219 12.707 6.21966 12.6694 6.30054C12.6319 6.38141 12.5786 6.45412 12.5129 6.51447L12.511 6.49347Z" fill="#BCCEE9"/>
</g>
<mask id="mask1_178_1764" style="mask-type:alpha" maskUnits="userSpaceOnUse" x="16" y="0" width="16" height="16">
<rect x="16" width="16" height="16" fill="#D9D9D9"/>
</mask>
<g mask="url(#mask1_178_1764)">
<path d="M31.0769 3.40845C31.0527 3.16774 30.9524 2.94105 30.7905 2.76123C30.6287 2.58141 30.4138 2.45782 30.177 2.40845C29.1939 2.25366 28.2228 2.0301 27.271 1.73944C26.3377 1.35742 25.4626 0.846444 24.6711 0.221436C24.4691 0.0761611 24.2264 -0.00195312 23.9775 -0.00195312C23.7287 -0.00195312 23.486 0.0761611 23.2839 0.221436C22.536 0.913801 21.642 1.42917 20.668 1.72943C19.7661 2.10237 18.8137 2.33832 17.842 2.42944C17.6013 2.46817 17.3815 2.58884 17.2195 2.77106C17.0575 2.95327 16.9634 3.18585 16.9531 3.42944C16.9531 3.42944 16.9231 5.93646 16.9231 8.14246C16.9231 12.1365 21.6359 16.0015 23.9929 16.0015C26.3499 16.0015 30.3439 13.2745 30.9819 8.20148C31.0811 6.60941 31.0978 5.01323 31.032 3.41943L31.072 3.40845H31.0769ZM28.511 6.49347L23.5881 11.1365C23.48 11.239 23.3405 11.3025 23.1921 11.317C23.0438 11.3315 22.895 11.2961 22.769 11.2164L22.6401 11.1064L19.9241 8.28046C19.8023 8.14785 19.7382 7.97233 19.7458 7.79248C19.7535 7.61263 19.8325 7.44321 19.9651 7.32147C20.0977 7.19974 20.2733 7.13562 20.4531 7.14331C20.633 7.151 20.8023 7.22982 20.9241 7.36243V7.36243L23.1611 9.70844L27.594 5.51447C27.6597 5.45412 27.7366 5.40727 27.8203 5.37665C27.9041 5.34603 27.9932 5.33224 28.0823 5.336C28.1714 5.33976 28.2587 5.36099 28.3396 5.39856C28.4205 5.43613 28.4931 5.48927 28.5535 5.55493C28.6138 5.62059 28.6608 5.6975 28.6914 5.78125C28.722 5.865 28.7357 5.95399 28.7319 6.04309C28.7282 6.13219 28.707 6.21966 28.6694 6.30054C28.6319 6.38141 28.5786 6.45412 28.5129 6.51447L28.511 6.49347Z" fill="#0D72FF"/>
</g>
</svg>
