<svg width="32" height="16" viewBox="0 0 32 16" fill="none" xmlns="http://www.w3.org/2000/svg">
<mask id="mask0_178_1762" style="mask-type:alpha" maskUnits="userSpaceOnUse" x="0" y="0" width="16" height="16">
<rect width="16" height="16" fill="#D9D9D9"/>
</mask>
<g mask="url(#mask0_178_1762)">
<path d="M13.4903 6.88566C13.3533 6.88566 12.5904 6.89372 12.4424 6.89372V4.47569C12.4841 3.88151 12.3984 3.2853 12.1912 2.72688C11.984 2.16845 11.6599 1.66067 11.2408 1.23747C10.8216 0.814263 10.3169 0.485366 9.76055 0.272775C9.20415 0.0601833 8.609 -0.0312136 8.01446 0.00467764C7.41978 -0.0254052 6.82541 0.0697148 6.26983 0.283883C5.71425 0.498051 5.20972 0.826506 4.78911 1.24796C4.3685 1.66942 4.04098 2.1745 3.82793 2.73051C3.61488 3.28652 3.52102 3.88108 3.5523 4.47569V6.86869L2.39434 6.87669C2.24863 6.8813 2.10534 6.91482 1.97271 6.97532C1.84008 7.03582 1.72088 7.1221 1.62188 7.2291C1.52288 7.33611 1.44608 7.46169 1.39605 7.59861C1.34602 7.73554 1.32367 7.88109 1.33037 8.02671V14.8267C1.31063 14.9748 1.32317 15.1254 1.36699 15.2683C1.41082 15.4111 1.48487 15.5428 1.58428 15.6544C1.68369 15.766 1.80605 15.8547 1.94292 15.9147C2.0798 15.9746 2.22785 16.0043 2.37725 16.0017H13.5245C13.6896 15.9885 13.8505 15.9427 13.9979 15.8669C14.1452 15.7912 14.276 15.6869 14.3829 15.5603C14.4897 15.4336 14.5703 15.2871 14.6202 15.1291C14.67 14.9711 14.6882 14.8047 14.6734 14.6397V8.17667C14.6734 7.51567 14.4523 6.88566 13.4903 6.88566ZM9.49029 12.9907C9.49543 13.1885 9.46087 13.3853 9.38872 13.5696C9.31658 13.7538 9.20844 13.9217 9.07036 14.0634C8.93229 14.2051 8.76707 14.3177 8.58477 14.3946C8.40247 14.4715 8.2067 14.5112 8.00884 14.5112C7.81098 14.5112 7.61521 14.4715 7.43291 14.3946C7.25061 14.3177 7.0854 14.2051 6.94732 14.0634C6.80924 13.9217 6.7011 13.7538 6.62896 13.5696C6.55682 13.3853 6.52226 13.1885 6.5274 12.9907V12.9637C6.52628 12.6985 6.59381 12.4376 6.72368 12.2064C6.85356 11.9752 7.04132 11.7817 7.26836 11.6447V8.83469C7.26836 8.43469 7.58339 8.3917 7.97539 8.3917C8.36739 8.3917 8.7503 8.43369 8.7503 8.83469V11.6447C8.97708 11.7819 9.16455 11.9755 9.29424 12.2066C9.42393 12.4378 9.4914 12.6986 9.49029 12.9637V12.9907ZM10.9813 6.86869H5.04644V3.80271C5.04644 2.32971 6.68937 1.52967 7.92437 1.52967H8.19634C9.43134 1.52967 10.9813 2.26971 10.9813 3.80271V6.86869Z" fill="#BCCEE9"/>
</g>
<mask id="mask1_178_1762" style="mask-type:alpha" maskUnits="userSpaceOnUse" x="16" y="0" width="16" height="16">
<rect x="16" width="16" height="16" fill="#D9D9D9"/>
</mask>
<g mask="url(#mask1_178_1762)">
<path d="M29.4903 6.88566C29.3533 6.88566 28.5904 6.89372 28.4424 6.89372V4.47569C28.4841 3.88151 28.3984 3.2853 28.1912 2.72688C27.984 2.16845 27.6599 1.66067 27.2408 1.23747C26.8216 0.814263 26.3169 0.485366 25.7605 0.272775C25.2042 0.0601833 24.609 -0.0312136 24.0145 0.00467764C23.4198 -0.0254052 22.8254 0.0697148 22.2698 0.283883C21.7142 0.498051 21.2097 0.826506 20.7891 1.24796C20.3685 1.66942 20.041 2.1745 19.8279 2.73051C19.6149 3.28652 19.521 3.88108 19.5523 4.47569V6.86869L18.3943 6.87669C18.2486 6.8813 18.1053 6.91482 17.9727 6.97532C17.8401 7.03582 17.7209 7.1221 17.6219 7.2291C17.5229 7.33611 17.4461 7.46169 17.396 7.59861C17.346 7.73554 17.3237 7.88109 17.3304 8.02671V14.8267C17.3106 14.9748 17.3232 15.1254 17.367 15.2683C17.4108 15.4111 17.4849 15.5428 17.5843 15.6544C17.6837 15.766 17.806 15.8547 17.9429 15.9147C18.0798 15.9746 18.2278 16.0043 18.3772 16.0017H29.5245C29.6896 15.9885 29.8505 15.9427 29.9979 15.8669C30.1452 15.7912 30.276 15.6869 30.3829 15.5603C30.4897 15.4336 30.5703 15.2871 30.6202 15.1291C30.67 14.9711 30.6882 14.8047 30.6734 14.6397V8.17667C30.6734 7.51567 30.4523 6.88566 29.4903 6.88566ZM25.4903 12.9907C25.4954 13.1885 25.4609 13.3853 25.3887 13.5696C25.3166 13.7538 25.2084 13.9217 25.0704 14.0634C24.9323 14.2051 24.7671 14.3177 24.5848 14.3946C24.4025 14.4715 24.2067 14.5112 24.0088 14.5112C23.811 14.5112 23.6152 14.4715 23.4329 14.3946C23.2506 14.3177 23.0854 14.2051 22.9473 14.0634C22.8092 13.9217 22.7011 13.7538 22.629 13.5696C22.5568 13.3853 22.5223 13.1885 22.5274 12.9907V12.9637C22.5263 12.6985 22.5938 12.4376 22.7237 12.2064C22.8536 11.9752 23.0413 11.7817 23.2684 11.6447V8.83469C23.2684 8.43469 23.5834 8.3917 23.9754 8.3917C24.3674 8.3917 24.7503 8.43369 24.7503 8.83469V11.6447C24.9771 11.7819 25.1646 11.9755 25.2942 12.2066C25.4239 12.4378 25.4914 12.6986 25.4903 12.9637V12.9907ZM26.9813 6.86869H21.0464V3.80271C21.0464 2.32971 22.6894 1.52967 23.9244 1.52967H24.1963C25.4313 1.52967 26.9813 2.26971 26.9813 3.80271V6.86869Z" fill="#0D72FF"/>
</g>
</svg>
