<svg width="32" height="16" viewBox="0 0 32 16" fill="none" xmlns="http://www.w3.org/2000/svg">
<mask id="mask0_178_1761" style="mask-type:alpha" maskUnits="userSpaceOnUse" x="0" y="0" width="16" height="16">
<rect width="16" height="16" fill="#D9D9D9"/>
</mask>
<g mask="url(#mask0_178_1761)">
<path d="M3.42798 4.57101C3.42778 5.47531 3.69598 6.35934 4.19824 7.11133C4.7005 7.86332 5.41435 8.44949 6.24976 8.79568C7.08516 9.14188 8.00441 9.23257 8.89136 9.05627C9.7783 8.87998 10.5932 8.4446 11.2327 7.80524C11.8722 7.16587 12.3076 6.35123 12.4841 5.46432C12.6606 4.57742 12.5701 3.65808 12.2241 2.8226C11.8781 1.98712 11.2922 1.27302 10.5403 0.770599C9.7884 0.268177 8.9043 2.16307e-08 8 0C6.7876 -2.90002e-08 5.62497 0.481545 4.76758 1.33875C3.91019 2.19595 3.42824 3.35862 3.42798 4.57101ZM4.57104 10.286C3.35874 10.286 2.1961 10.7676 1.33887 11.6248C0.481638 12.482 0 13.6447 0 14.857C0.000258355 15.159 0.120006 15.4487 0.333008 15.6628C0.546009 15.8769 0.835187 15.9982 1.13721 16H14.8621C15.0119 15.9997 15.1601 15.9699 15.2983 15.9124C15.4366 15.8548 15.5623 15.7705 15.668 15.6643C15.7737 15.5582 15.8573 15.4323 15.9143 15.2937C15.9713 15.1552 16.0004 15.0068 16 14.857C15.9997 13.6446 15.518 12.482 14.6606 11.6248C13.8033 10.7676 12.6404 10.286 11.428 10.286H4.57104Z" fill="#BCCEE9"/>
</g>
<mask id="mask1_178_1761" style="mask-type:alpha" maskUnits="userSpaceOnUse" x="16" y="0" width="16" height="16">
<rect x="16" width="16" height="16" fill="#D9D9D9"/>
</mask>
<g mask="url(#mask1_178_1761)">
<path d="M19.428 4.57101C19.4278 5.47531 19.696 6.35934 20.1982 7.11133C20.7005 7.86332 21.4143 8.44949 22.2498 8.79568C23.0852 9.14188 24.0044 9.23257 24.8914 9.05627C25.7783 8.87998 26.5932 8.4446 27.2327 7.80524C27.8722 7.16587 28.3076 6.35123 28.4841 5.46432C28.6606 4.57742 28.5701 3.65808 28.2241 2.8226C27.8781 1.98712 27.2922 1.27302 26.5403 0.770599C25.7884 0.268177 24.9043 2.16307e-08 24 0C22.7876 -2.90002e-08 21.625 0.481545 20.7676 1.33875C19.9102 2.19595 19.4282 3.35862 19.428 4.57101ZM20.571 10.286C19.3587 10.286 18.1961 10.7676 17.3389 11.6248C16.4816 12.482 16 13.6447 16 14.857C16.0003 15.159 16.12 15.4487 16.333 15.6628C16.546 15.8769 16.8352 15.9982 17.1372 16H30.8621C31.0119 15.9997 31.1601 15.9699 31.2983 15.9124C31.4366 15.8548 31.5623 15.7705 31.668 15.6643C31.7737 15.5582 31.8573 15.4323 31.9143 15.2937C31.9713 15.1552 32.0004 15.0068 32 14.857C31.9997 13.6446 31.518 12.482 30.6606 11.6248C29.8033 10.7676 28.6404 10.286 27.428 10.286H20.571Z" fill="#0D72FF"/>
</g>
</svg>
